<?xml version="1.0" ?>
<!-- Uploaded to: SVG Repo, www.svgrepo.com, Generator: SVG Repo Mixer Tools -->
<svg width="800px" height="800px" viewBox="0 0 64 64" xmlns="http://www.w3.org/2000/svg">
<g id="a"/>
<g id="b"/>
<g id="c"/>
<g id="d"/>
<g id="e"/>
<g id="f"/>
<g id="g"/>
<g id="h"/>
<g id="i"/>
<g id="j"/>
<g id="k"/>
<g id="l"/>
<g id="m"/>
<g id="n"/>
<g id="o"/>
<g id="p"/>
<g id="q"/>
<g id="r"/>
<g id="s"/>
<g id="t"/>
<g id="u"/>
<g id="v"/>
<g id="w"/>
<g id="x"/>
<g id="y"/>
<g id="a`"/>
<g id="aa"/>
<g id="ab"/>
<g id="ac"/>
<g id="ad"/>
<g id="ae"/>
<g id="af"/>
<g id="ag"/>
<g id="ah"/>
<g id="ai"/>
<g id="aj"/>
<g id="ak"/>
<g id="al"/>
<g id="am"/>
<g id="an"/>
<g id="ao"/>
<g id="ap"/>
<g id="aq"/>
<g id="ar"/>
<g id="as"/>
<g id="at"/>
<g id="au">
<path d="M32,5.85v4.37h3.86c.67,0,1.21-.54,1.21-1.21v-1.95c0-.67-.54-1.21-1.21-1.21h-3.86Z" fill="#ffa6c5" fill-rule="evenodd"/>
<path d="M32,4.39c-.55,0-1,.45-1,1V14.62c0,.55,.45,1,1,1s1-.45,1-1V5.39c0-.55-.45-1-1-1Z" fill="#9dacb9" fill-rule="evenodd"/>
<path d="M6.96,41.9c-1.09,0-1.96,.88-1.96,1.96v6.66H59v-6.66c0-1.08-.87-1.96-1.96-1.96H6.96Z" fill="#9af6d3" fill-rule="evenodd"/>
<path d="M6.96,48.56H57.04c1.08,0,1.96,.88,1.96,1.96v6.13c0,1.08-.88,1.96-1.96,1.96H6.96c-1.08,0-1.96-.88-1.96-1.96v-6.13c0-1.08,.88-1.96,1.96-1.96Z" fill="#6df4c0"/>
<path d="M18.7,27.27c.1,2.9-.14,9.85-3.74,18.04l18.45,1.74,15.62-1.74c-3.6-8.19-3.84-15.14-3.74-18.04l-13.77-1.76-12.82,1.76Z" fill="#ffa6c5" fill-rule="evenodd"/>
<path d="M38.17,42.3c-.76-5.46-.96-10.14-.99-13.1l-.54-5.92-9.3,.12-.52,5.8c-.03,2.96-.23,7.64-.99,13.1h12.33Z" fill="#fce87b" fill-rule="evenodd"/>
<path d="M32,35.45c-1.63,6.08-7.76,4.24-6.26,9.86h12.51c1.51-5.62-4.63-3.78-6.26-9.86Z" fill="#f0f4f6" fill-rule="evenodd"/>
<path d="M32,11.23c-5.36,6.62-13.4,10.7-13.4,10.7l14.23,1.94,12.56-1.94s-8.04-4.08-13.4-10.7Z" fill="#ffa6c5" fill-rule="evenodd"/>
<path d="M18.61,25.18v1.39c0,1.48,1.19,2.68,2.68,2.68s2.68-1.2,2.68-2.68h5.36c0,1.48,1.2,2.68,2.68,2.68s2.68-1.2,2.68-2.68h5.36c0,1.48,1.2,2.68,2.68,2.68s2.68-1.2,2.68-2.68v-1.39l-13.15-1.86-13.64,1.86Z" fill="#fca65c" fill-rule="evenodd"/>
<path d="M34.68,25.18v1.39c0,1.48,1.19,2.68,2.68,2.68s2.68-1.2,2.68-2.68v-1.39l-2.68-1.05-2.68,1.05Zm-10.72,0v1.39c0,1.48,1.2,2.68,2.68,2.68s2.68-1.2,2.68-2.68v-1.39l-2.68-1.05-2.68,1.05Z" fill="#feb87e" fill-rule="evenodd"/>
<path d="M13.56,45.31H50.44c.9,0,1.62,.72,1.62,1.62s-.72,1.63-1.62,1.63H13.56c-.9,0-1.62-.73-1.62-1.63s.72-1.62,1.62-1.62Z" fill="#9dacb9" fill-rule="evenodd"/>
<path d="M32,11.23c-1.89,6.62-4.72,10.7-4.72,10.7l5.51,.95,3.92-.95s-2.83-4.08-4.72-10.7Z" fill="#fce87b" fill-rule="evenodd"/>
<path d="M18.61,21.93h26.79c.9,0,1.62,.72,1.62,1.62s-.72,1.63-1.62,1.63H18.61c-.9,0-1.62-.73-1.62-1.63s.72-1.62,1.62-1.62Z" fill="#9dacb9" fill-rule="evenodd"/>
<path d="M38.56,54.54c-.55,0-1,.46-1,1v.47c-.23-.11-.58-.3-.58-.3-.53-.13-1.08,.2-1.21,.73-.13,.53,.2,1.08,.73,1.21,0,0,.75,.1,1.11,1.26,.13,.42,.52,.7,.96,.7s.83-.28,.96-.7c.36-1.16,1.11-1.26,1.11-1.26,.53-.13,.86-.68,.73-1.21-.13-.53-.68-.86-1.21-.73,0,0-.35,.19-.58,.3v-.47c0-.54-.45-1-1-1Z" fill="#3aedbc" fill-rule="evenodd"/>
<path d="M25.44,54.54c-.55,0-1,.46-1,1v.47c-.23-.11-.58-.3-.58-.3-.53-.13-1.08,.2-1.21,.73-.02,.08-.03,.16-.03,.24,0,.46,.32,.86,.76,.97,0,0,.75,.1,1.1,1.26,.13,.42,.52,.7,.96,.7s.83-.28,.96-.7c.36-1.16,1.11-1.26,1.11-1.26,.53-.13,.86-.68,.73-1.21-.13-.53-.68-.86-1.21-.73,0,0-.35,.19-.58,.3v-.47c0-.54-.45-1-1-1Z" fill="#3aedbc" fill-rule="evenodd"/>
<path d="M12.32,54.54c-.55,0-1,.46-1,1v.47c-.23-.11-.58-.3-.58-.3-.53-.13-1.08,.2-1.21,.73-.13,.53,.2,1.08,.73,1.21,0,0,.75,.1,1.11,1.26,.13,.42,.52,.7,.96,.7s.83-.28,.96-.7c.36-1.16,1.11-1.26,1.11-1.26,.53-.13,.86-.68,.73-1.21-.13-.53-.68-.86-1.21-.73,0,0-.35,.19-.58,.3v-.47c0-.54-.45-1-1-1Z" fill="#3aedbc" fill-rule="evenodd"/>
<path d="M51.68,54.54c-.55,0-1,.46-1,1v.47c-.23-.11-.58-.3-.58-.3-.53-.13-1.08,.2-1.21,.73-.13,.53,.2,1.08,.73,1.21,0,0,.75,.1,1.11,1.26,.13,.42,.52,.7,.96,.7s.83-.28,.96-.7c.36-1.16,1.11-1.26,1.11-1.26,.53-.13,.86-.68,.73-1.21-.13-.53-.68-.86-1.21-.73,0,0-.35,.19-.58,.3v-.47c0-.54-.45-1-1-1Z" fill="#3aedbc" fill-rule="evenodd"/>
<path d="M11.63,37.83c-.55,0-1,.45-1,1v.47c-.23-.11-.58-.3-.58-.3-.53-.13-1.08,.19-1.21,.73-.13,.53,.2,1.08,.73,1.21,0,0,.75,.1,1.11,1.26,.13,.41,.52,.7,.96,.7s.83-.29,.96-.7c.36-1.16,1.1-1.26,1.1-1.26,.53-.13,.86-.68,.73-1.21-.13-.53-.68-.86-1.21-.73,0,0-.35,.19-.58,.3v-.47c0-.55-.45-1-1-1Z" fill="#3aedbc" fill-rule="evenodd"/>
<path d="M52.37,37.83c-.55,0-1,.45-1,1v.47c-.23-.11-.58-.3-.58-.3-.53-.13-1.08,.19-1.21,.73-.13,.53,.2,1.08,.73,1.21,0,0,.75,.1,1.1,1.26,.13,.41,.52,.7,.96,.7s.83-.29,.96-.7c.36-1.16,1.1-1.26,1.1-1.26,.45-.11,.76-.51,.76-.97,0-.08,0-.16-.03-.24-.13-.54-.68-.86-1.21-.73,0,0-.35,.19-.58,.3v-.47c0-.55-.45-1-1-1Z" fill="#3aedbc" fill-rule="evenodd"/>
<circle cx="21.16" cy="41.68" fill="#f0f4f6" r="1"/>
<circle cx="21.81" cy="38.12" fill="#f0f4f6" r="1"/>
<circle cx="42.84" cy="41.68" fill="#f0f4f6" r="1"/>
<circle cx="42.19" cy="38.12" fill="#f0f4f6" r="1"/>
</g>
<g id="av"/>
<g id="aw"/>
<g id="ax"/>
</svg>