<?xml version="1.0" encoding="utf-8"?>
<!-- Uploaded to: SVG Repo, www.svgrepo.com, Generator: SVG Repo Mixer Tools -->
<svg width="800px" height="800px" viewBox="0 -33.11 388.55 388.55" xmlns="http://www.w3.org/2000/svg"><defs><style>.a{fill:#ffffff;}.b{fill:#b5886a;}.c{fill:#f4b3b3;}.d{fill:#211715;}.e{fill:#bdbdbd;}.f{fill:#3f88c9;}.g{fill:#7a7473;}</style></defs><path class="a" d="M346.374,108.833a6.238,6.238,0,0,1,4.994-1.461,5.891,5.891,0,0,1,4.237,2.817,8.307,8.307,0,0,1,.872,3.352,24.962,24.962,0,0,1-2.546,13.236,15.871,15.871,0,0,1-4.1,5.386,10.519,10.519,0,0,1-4.893,2.2l-.834.129c-.406,1.506-.857,2.77-1.078,3.442-1.475,4-9.962,18.195-20.491,22.61a56.354,56.354,0,0,0,.878,9c.5,2.849.343,5.4,4.3,6.826.263.094,12.737,5.439,13.138,5.6,0,0-3.6,22.568-35.6,22.568s-36.107-23.333-36.107-23.333c.763-.26,12.118-4.745,12.38-4.839,3.961-1.431,3.805-3.977,4.3-6.826a56.364,56.364,0,0,0,.877-8.948,35.924,35.924,0,0,1-12.973-10.2,42.461,42.461,0,0,1-8.093-15.8l-1.6-.245a10.515,10.515,0,0,1-4.893-2.2,15.874,15.874,0,0,1-4.1-5.386,24.982,24.982,0,0,1-2.546-13.236,8.324,8.324,0,0,1,.873-3.352,5.891,5.891,0,0,1,4.237-2.817,6.24,6.24,0,0,1,4.994,1.461s-.463-37.583,40.868-37.17C347.922,72.108,346.374,108.833,346.374,108.833Z"/><path class="b" d="M256.234,139.523a21.647,21.647,0,0,1,1.35-8.876,12.821,12.821,0,0,0,1.572,1.516,10.515,10.515,0,0,0,4.893,2.2l1.6.246a42.411,42.411,0,0,0,8.09,15.8,37.6,37.6,0,0,0,10.838,9.155c2.092,13.239-29.162,12.419-27.438,8.02,3.51-1.99,4.31-6.84,3.36-10.76s-2.72-7.8-3.54-11.75A35.12,35.12,0,0,1,256.234,139.523Z"/><path class="b" d="M353.291,84.626c-.3-2.234-.652-4.248-.985-5.875-4.34-21.287-25.777-38.185-48.258-36.95-22.48-1.235-43.917,15.663-48.258,36.95-1.176,5.742-1.035,15.565.034,20.148l1.618,8.509a1.143,1.143,0,0,1,.174-.036,6.26,6.26,0,0,1,4.435,1.03c8.112-7.554,24.476-19.406,32.318-27.067-.642,4.525-2.922,12.222-.049,11.431,12-3.156,23.492-9.519,30.444-19.447,1.466,5.864,3.887,13.781,5.666,17.241,2.588,5.036,10.123,16.7,16.7,17.715a6.244,6.244,0,0,1,4.236-.9,5.242,5.242,0,0,1,.622.13C354.65,101.28,354.251,91.812,353.291,84.626Z"/><path class="c" d="M224.936,318.424c.89-26.134.364-61.16,1.979-88.5a86.736,86.736,0,0,1,2.048-16.327,55.659,55.659,0,0,1,4.028-9.239c3.158-5.221,8.215-8.982,13.319-12.326A126.833,126.833,0,0,1,266.134,181.6a4.277,4.277,0,0,1,4.077.35c17.921,11.943,48.812,14.348,70.005.461a4.348,4.348,0,0,1,4.132-.287,123.18,123.18,0,0,1,18.641,9.907c5.1,3.344,10.162,7.1,13.319,12.326a55.659,55.659,0,0,1,4.028,9.239,86.736,86.736,0,0,1,2.048,16.327c1.595,27,1.1,62.682,1.946,88.712"/><path class="d" d="M284.31,160.7a72.779,72.779,0,0,1-1.008,9.613,15.594,15.594,0,0,1-.292,1.534c-.054.209-.117.415-.187.619-.154.443-.05.1-.007.017-.066.128-.136.252-.207.377-.038.066-.257.36-.012.052a3.319,3.319,0,0,1-.233.256c-.294.3-.1.147-.387.337a6.473,6.473,0,0,1-1.12.575c-2.811,1.153-5.66,2.226-8.49,3.334-1.281.5-2.556,1.039-3.856,1.493a2.459,2.459,0,0,0-1.676,2.952,2.422,2.422,0,0,0,2.952,1.676c3.111-1.084,6.158-2.394,9.224-3.6q1.576-.621,3.156-1.239c2.934-1.152,5-3.032,5.614-6.216a69.441,69.441,0,0,0,1.329-11.78c.062-3.09-4.738-3.09-4.8,0Z"/><path class="d" d="M320.133,160.7a77.314,77.314,0,0,0,1.26,11.39,8.5,8.5,0,0,0,1.3,3.489,8.891,8.891,0,0,0,4.224,3.054c.133.054.271.115.407.163-.644-.23-.191-.08.22.095q1.155.49,2.309.984l5.9,2.522c1.488.636,2.971,1.283,4.464,1.9a2.414,2.414,0,0,0,2.952-1.677,2.461,2.461,0,0,0-1.676-2.952c1.158.481-.163-.071-.463-.2l-2.135-.913-5.516-2.358q-2.179-.931-4.361-1.857a9.727,9.727,0,0,1-1.787-.866,2.055,2.055,0,0,1-.641-.7c-.071-.12-.274-.59-.133-.222a7.019,7.019,0,0,1-.255-.849,51.9,51.9,0,0,1-1.266-11.009c-.062-3.085-4.863-3.095-4.8,0Z"/><path class="d" d="M318.417,204.036a91.053,91.053,0,0,1-23.035.586c-6.754-.7-13.735-2.267-19.582-5.846-2.642-1.617-5.056,2.533-2.422,4.145,6.48,3.966,14.134,5.649,21.6,6.458a95.473,95.473,0,0,0,24.711-.714,2.418,2.418,0,0,0,1.676-2.953,2.46,2.46,0,0,0-2.952-1.676Z"/><path class="d" d="M337.026,197.284a42.381,42.381,0,0,1-4.17,2.465q-1.056.544-2.141,1.031c-.169.076-.338.15-.508.224l-.291.125q.495-.208.135-.058c-.392.159-.783.317-1.178.468a2.6,2.6,0,0,0-1.434,1.1,2.4,2.4,0,0,0,2.71,3.526,46.525,46.525,0,0,0,9.3-4.74,2.4,2.4,0,1,0-2.423-4.144Z"/><path class="d" d="M227.336,315.718c.883-26.172.422-52.374,1.6-78.539.3-6.724.437-13.59,1.726-20.213a31.406,31.406,0,0,1,8.725-16.659c4.589-4.381,10.253-7.772,15.8-10.789,2.9-1.579,5.872-3.027,8.88-4.393a13.351,13.351,0,0,1,3.573-1.48c1.149-.129,2.318,1.013,3.248,1.571,9.056,5.439,19.657,8.187,30.138,8.906a69.338,69.338,0,0,0,32.893-5.554,58.37,58.37,0,0,0,7.194-3.883c1.14-.714,1.852-.569,3.069-.026q2.374,1.061,4.718,2.189a106.432,106.432,0,0,1,17.172,10.229,34.815,34.815,0,0,1,6.638,6.267,30.988,30.988,0,0,1,4.343,8.312c2.4,6.333,2.641,13.16,3.022,19.862,1.488,26.194,1.812,52.439,3.138,78.64q.24,4.755.53,9.5c.187,3.069,4.989,3.091,4.8,0-1.657-27.041-1.989-54.141-3.3-81.2-.327-6.744-.548-13.542-1.543-20.227a38.171,38.171,0,0,0-8.118-18.925c-4.292-5.043-10.178-8.8-15.836-12.124-2.937-1.726-5.955-3.308-9.027-4.778-2.915-1.4-6.343-3.637-9.695-2.906a13.675,13.675,0,0,0-3.912,2.016q-1.917,1.14-3.926,2.117a53.89,53.89,0,0,1-7.732,3.022,64.634,64.634,0,0,1-16.443,2.776,66.854,66.854,0,0,1-31.364-6.037c-2.229-1.068-4.263-2.386-6.391-3.624-3.351-1.95-6.466-.221-9.608,1.206a122.21,122.21,0,0,0-17.936,9.9c-5.425,3.662-10.641,7.94-13.682,13.866a41.9,41.9,0,0,0-3.7,9.569,77.17,77.17,0,0,0-1.5,10.906c-1.051,13.478-1.265,27.037-1.47,40.549-.208,13.627-.261,27.257-.568,40.882q-.1,4.533-.252,9.065c-.1,3.09,4.7,3.086,4.8,0Z"/><path class="d" d="M255.413,229.213a113.713,113.713,0,0,0-1.3,20.819c.047,8.048.448,16.1,1.1,24.12.307,3.8.675,7.6,1.147,11.378a2.476,2.476,0,0,0,2.4,2.4,2.415,2.415,0,0,0,2.4-2.4,270.093,270.093,0,0,1-2.091-44.869c.08-1.857.194-3.712.366-5.562.169-1.813.3-2.907.609-4.61a2.467,2.467,0,0,0-1.677-2.952,2.42,2.42,0,0,0-2.952,1.676Z"/><path class="d" d="M349.131,229.41a218.611,218.611,0,0,1,1.078,38.473q-.441,8.822-1.358,17.609c-.449,4.356-1.2,8.6-.8,12.981.608,6.743,1.778,13.433,2.586,20.153a2.475,2.475,0,0,0,2.4,2.4,2.414,2.414,0,0,0,2.4-2.4c-.731-6.083-1.709-12.137-2.39-18.226a40.13,40.13,0,0,1-.37-6.048c.09-2.2.5-4.421.739-6.615a304.361,304.361,0,0,0,1.942-36.33,190.517,190.517,0,0,0-1.423-22,2.478,2.478,0,0,0-2.4-2.4,2.413,2.413,0,0,0-2.4,2.4Z"/><path class="d" d="M258.138,98.261c-1.164-5.162-1.015-11.152-.409-16.512a38.537,38.537,0,0,1,5.5-15.377A46.954,46.954,0,0,1,289.46,46c5.65-1.714,11.267-1.887,17.121-1.858a42.962,42.962,0,0,1,16.5,3.453,46.907,46.907,0,0,1,24.09,23.1c2.465,5.311,3.506,11.183,4.079,16.974.622,6.295.913,13.214-1.56,19.173a2.415,2.415,0,0,0,1.677,2.952,2.461,2.461,0,0,0,2.952-1.676c2.393-5.767,2.361-12.519,1.89-18.644a65.832,65.832,0,0,0-3.131-16.911,50.8,50.8,0,0,0-24.045-27.423,49.87,49.87,0,0,0-18.14-5.563,85.448,85.448,0,0,0-9.373-.238,47.158,47.158,0,0,0-9.533,1.052,51.822,51.822,0,0,0-30.657,20.2,45.68,45.68,0,0,0-7.664,16.67A56.644,56.644,0,0,0,252.9,95.6a35.18,35.18,0,0,0,.613,3.942c.68,3.012,5.308,1.738,4.628-1.276Z"/><path class="d" d="M322.628,74.667c1.53,5.938,3.124,12.241,6.032,17.681a55.237,55.237,0,0,0,9.657,13.278,17.629,17.629,0,0,0,7.633,4.856c2.993.77,4.27-3.858,1.276-4.628-2.577-.663-5-2.966-6.919-5.089a53.264,53.264,0,0,1-5.854-7.979c-3.631-5.923-5.469-12.691-7.2-19.395-.77-2.989-5.4-1.722-4.628,1.276Z"/><path class="d" d="M322.813,71.933a43.531,43.531,0,0,1-14.7,12.808,58.674,58.674,0,0,1-9.147,4.095q-1.214.425-2.442.8a23.065,23.065,0,0,0-2.656.763c-.4.18-.021-.016.127.02a2.38,2.38,0,0,1,.537.137,2.576,2.576,0,0,1,.766.666c-.182-.211.07,0,0,.024-.25.092.316.143.022-.02-.054-.029-.014-.372-.016-.052,0,.263,0-.541,0-.667.069-2.76.955-5.671,1.376-8.536a2.513,2.513,0,0,0-1.1-2.711,2.455,2.455,0,0,0-2.909.376c-10.043,9.768-21.915,17.455-32.2,26.956-2.274,2.1,1.127,5.488,3.394,3.394,10.284-9.5,22.155-17.187,32.2-26.956L292.055,80.7c-.468,3.185-1.383,6.338-1.538,9.564A5.414,5.414,0,0,0,291.424,94c1.267,1.541,2.955,1.258,4.675.774a62.387,62.387,0,0,0,21.6-10.65,45.207,45.207,0,0,0,9.26-9.763,2.421,2.421,0,0,0-.861-3.284,2.449,2.449,0,0,0-3.283.861Z"/><path class="d" d="M255.272,130.007c-2.641,7.067-1.261,14.656,1.1,21.589,1.072,3.152,2.614,6.634,1.961,10.037a5.872,5.872,0,0,1-1.7,3.381c-.709.626-1.5.946-1.807,1.933a3.275,3.275,0,0,0-.15,1.063c.107,3.705,5.192,4.37,7.952,4.677a37.413,37.413,0,0,0,12.932-.9c4.589-1.134,9.388-3.465,11.085-8.186a2.424,2.424,0,0,0-1.676-2.953,2.45,2.45,0,0,0-2.953,1.676c-.141.394.189-.282-.08.2-.105.189-.2.382-.314.567-.067.107-.531.715-.168.274-.162.2-.33.386-.508.568-.159.163-.327.315-.5.468-.118.1-.586.458-.214.187a13.151,13.151,0,0,1-1.311.842,15.96,15.96,0,0,1-1.465.727c.376-.164-.26.1-.369.141-.289.109-.579.211-.872.308a27.851,27.851,0,0,1-3.354.87,24.075,24.075,0,0,1-3.232.455q-1.773.153-3.554.145c-1.052,0-2.1-.053-3.15-.158-.233-.023-.464-.049-.7-.078.591.073-.072-.013-.209-.037-.456-.08-.911-.163-1.361-.275-.388-.1-.759-.238-1.144-.343-.476-.13.416.277-.07-.031a2.935,2.935,0,0,0-.387-.216c-.454-.193.264.236.1.085-.35-.332.237.381.117.175a1.469,1.469,0,0,1,.15.493c.011.09-.116.919.02.533l-1.1,1.434a10.526,10.526,0,0,0,4.807-8.06c.435-3.59-.712-7.022-1.852-10.377-2.21-6.509-3.9-13.257-1.4-19.937a2.421,2.421,0,0,0-1.676-2.953,2.454,2.454,0,0,0-2.953,1.676Z"/><path class="d" d="M348.071,110.53a3.716,3.716,0,0,1,5.462.87,8.49,8.49,0,0,1,.632,3.893,21.489,21.489,0,0,1-.361,4.378c-1,5.2-3.729,11.359-9.508,12.383a2.421,2.421,0,0,0-1.676,2.952,2.455,2.455,0,0,0,2.953,1.677c8.431-1.5,12.483-10.918,13.265-18.545.395-3.857.277-8.64-2.984-11.288a8.7,8.7,0,0,0-11.178.286,2.42,2.42,0,0,0,0,3.394,2.452,2.452,0,0,0,3.4,0Z"/><path class="d" d="M342.47,129.722a20.858,20.858,0,0,1-1,5.242c-.187.619-.39,1.232-.6,1.845-.067.2-.141.4-.2.6-.149.462.052-.1.016-.024a43.37,43.37,0,0,1-2.786,5.1,49.357,49.357,0,0,1-10.905,12.6,20.722,20.722,0,0,1-8.1,4.111c-3.008.7-1.735,5.327,1.276,4.628,6.278-1.456,11.553-5.926,15.715-10.657a54.071,54.071,0,0,0,8.821-13.09,28.235,28.235,0,0,0,2.562-10.359c.113-3.089-4.687-3.085-4.8,0Z"/><path class="d" d="M264.307,107.136a8.7,8.7,0,0,0-11.177-.286c-3.26,2.647-3.38,7.432-2.984,11.288.782,7.628,4.834,17.05,13.265,18.545a2.469,2.469,0,0,0,2.953-1.677,2.422,2.422,0,0,0-1.677-2.952c-5.778-1.024-8.5-7.181-9.507-12.383a21.477,21.477,0,0,1-.363-4.159,8.8,8.8,0,0,1,.634-4.112,3.717,3.717,0,0,1,5.462-.87,2.465,2.465,0,0,0,3.394,0,2.419,2.419,0,0,0,0-3.394Z"/><path class="d" d="M261.986,129.261c2.3,13.214,9.479,26.151,21.706,32.55a29.99,29.99,0,0,0,10.87,3.258,2.415,2.415,0,0,0,2.4-2.4,2.456,2.456,0,0,0-2.4-2.4c-7.76-.817-14.268-5.722-19.128-11.556-4.906-5.888-7.521-13.261-8.819-20.728a2.42,2.42,0,0,0-2.953-1.676,2.454,2.454,0,0,0-1.676,2.952Z"/><path class="d" d="M296.711,142.795a17.073,17.073,0,0,0,8.215,1.908,13.435,13.435,0,0,0,8.351-2.489,2.4,2.4,0,0,0,0-3.394,2.474,2.474,0,0,0-3.394,0c.744-.58.232-.182.041-.06q-.243.156-.5.289c-.225.118-.778.247-.109.075-.232.059-.459.176-.688.25a12.944,12.944,0,0,1-1.924.439c.358-.057.122-.017-.1.005-.189.018-.378.034-.567.046-.455.03-.911.041-1.368.039q-.612,0-1.224-.044c-.187-.013-.374-.028-.561-.047-.083-.008-.768-.128-.189-.018a17.8,17.8,0,0,1-1.8-.4c-.252-.076-.5-.166-.746-.251-.585-.2.427.212-.1-.038q-.462-.217-.914-.456a2.4,2.4,0,0,0-2.422,4.145Z"/><path class="d" d="M303.567,123.621a37.875,37.875,0,0,1,.89,4.074l-.085-.638a2.516,2.516,0,0,1,.015.562l.086-.638a1.483,1.483,0,0,1-.062.253l.242-.574a1.037,1.037,0,0,1-.09.163l.376-.486a.867.867,0,0,1-.133.131l.485-.375a2.61,2.61,0,0,1-.322.171l.573-.242a2.392,2.392,0,0,1-.544.159l.638-.086a2.175,2.175,0,0,1-.51,0l.638.086c-.192-.027-.381-.074-.574-.1a1.823,1.823,0,0,0-.957-.043,1.794,1.794,0,0,0-.892.285,2.4,2.4,0,0,0-.861,3.284,2.3,2.3,0,0,0,1.434,1.1c.466.062.918.18,1.392.2a4.5,4.5,0,0,0,2.085-.5,3.079,3.079,0,0,0,1.687-2.022,4.961,4.961,0,0,0-.02-2.142c-.222-1.312-.525-2.612-.862-3.9a2.4,2.4,0,0,0-2.953-1.676,2.446,2.446,0,0,0-1.676,2.952Z"/><path class="d" d="M282.331,112c-.681,2.21-.237,7.3,3.95,7.728,5.535-.033,5.83-6.181,3.966-9.072C288.722,108.294,284.236,107.309,282.331,112Z"/><path class="d" d="M326.653,112c.681,2.21.237,7.3-3.95,7.728-5.535-.034-5.83-6.181-3.967-9.072C320.262,108.294,324.747,107.309,326.653,112Z"/><path class="d" d="M317.58,136.568a8.727,8.727,0,0,1,1.5,1.5l-.375-.485a8.911,8.911,0,0,1,1.142,1.959l-.242-.573a8.794,8.794,0,0,1,.422,1.3,2.4,2.4,0,1,0,4.628-1.276,10.857,10.857,0,0,0-3.676-5.814,2.672,2.672,0,0,0-1.7-.7,2.445,2.445,0,0,0-1.7.7,2.418,2.418,0,0,0-.7,1.7,2.318,2.318,0,0,0,.7,1.7Z"/><path class="a" d="M129.975,152.316c-.751-.331-3.538-1.431-3.87-1.551-5.017-1.812-4.819-5.037-5.451-8.645A70.61,70.61,0,0,1,119.537,130c9.93-5.819,17.653-18.861,19.1-22.78.237-.719.72-2.075,1.15-3.684l.9-.139a11.263,11.263,0,0,0,5.239-2.361,17.008,17.008,0,0,0,4.395-5.767,26.745,26.745,0,0,0,2.726-14.173,8.935,8.935,0,0,0-.934-3.589,6.31,6.31,0,0,0-4.538-3.016,6.681,6.681,0,0,0-5.347,1.564S151.478,30.33,95.478,30.33c-51.111,0-42.948,45.721-42.948,45.721a6.681,6.681,0,0,0-5.347-1.564A6.308,6.308,0,0,0,42.646,77.5a8.9,8.9,0,0,0-.934,3.589,26.726,26.726,0,0,0,2.726,14.173,16.992,16.992,0,0,0,4.394,5.767,11.268,11.268,0,0,0,5.239,2.361l1.708.263a45.46,45.46,0,0,0,8.666,16.914,41.339,41.339,0,0,0,10.231,9.014,70.467,70.467,0,0,1-1.119,12.536c-.632,3.608-.434,6.833-5.45,8.645a29.815,29.815,0,0,0-3.028,1.254c-1.6.978-.712,22.755,29.066,22.755S129.975,152.316,129.975,152.316Z"/><path class="e" d="M52.53,76.051a6.681,6.681,0,0,0-5.347-1.564,6.435,6.435,0,0,0-.818.177c-4.278-18.845-2.213-35.279,6.246-49.622,5.5-9.332,15.367-17.195,24.728-18.279a47.3,47.3,0,0,0,7.345-1.706c11.1-5.174,29.405-2.669,38.429,6.429l-.059-.084a18.416,18.416,0,0,0,4.276,3,33.013,33.013,0,0,0,3.041,1.288c9.037,3.7,14.617,12.265,17.453,23.621,2.872,11.5,2.572,25.858.04,34.308,0,0-.135.347-.336.86a6.681,6.681,0,0,0-5.307,1.57l-5.761-6.4c-3.87-3.481-1.425-15.745-4.3-20.871-3.435-6.117-6.234-7.121-13.567-8.973-2.234-.564-18.463-2.9-27.649-2.458-7.1.343-13.536,2.162-20.445,4.771C60.58,45.869,57.182,61.982,57.107,69.367Z"/><path class="a" d="M2.4,318.181c2-41.137,4.008-84.734,6.01-124.558.464-9.237,2.811-16.982,11.954-24.28a46.835,46.835,0,0,1,6.876-4.49,240.933,240.933,0,0,1,39.421-17.338,33.408,33.408,0,0,1,6.961-9.546,66.93,66.93,0,0,0,19.312,13.458c.4.181.845.4.974.822a1.551,1.551,0,0,1-.223,1.091h7.034a1.546,1.546,0,0,1-.223-1.091c.129-.419.574-.641.974-.822a66.926,66.926,0,0,0,19.311-13.458,33.047,33.047,0,0,1,6.733,9.1,242.2,242.2,0,0,1,40.736,17.787,46.889,46.889,0,0,1,6.876,4.49c9.143,7.3,11.49,15.043,11.954,24.28,2.01,40,4.024,83.426,6.036,124.722"/><path class="d" d="M72.268,130.9a66.392,66.392,0,0,1-.642,8.188,60.758,60.758,0,0,1-1.007,6.015c-.045.181-.093.362-.149.54-.016.052-.208.607-.1.339s-.128.267-.155.318a5.73,5.73,0,0,1-.349.576c.189-.274-.038.049-.134.15a6.14,6.14,0,0,1-.439.43,5.714,5.714,0,0,1-1.013.633c-1.4.729-2.958,1.235-4.409,1.854a2.415,2.415,0,0,0-.861,3.283,2.464,2.464,0,0,0,3.284.861c.211-.089.37-.156.062-.027l.645-.27c.421-.176.842-.352,1.265-.523A21.1,21.1,0,0,0,71.1,152.02a8.852,8.852,0,0,0,4.035-5.2,45.309,45.309,0,0,0,1.095-6.249,76.476,76.476,0,0,0,.843-9.663c.06-3.09-4.74-3.09-4.8,0Z"/><path class="d" d="M117.143,130.9a76.818,76.818,0,0,0,.924,10.2,33.116,33.116,0,0,0,1.188,6.238,8.913,8.913,0,0,0,4.683,5.1c.851.4,1.746.711,2.621,1.056q.7.278,1.4.558c.22.088.439.179.659.267.589.236-.139-.064.147.06a2.48,2.48,0,0,0,3.284-.861,2.418,2.418,0,0,0-.861-3.284c-1.466-.635-2.959-1.2-4.443-1.793a5.761,5.761,0,0,1-2.178-1.332c-.039-.04-.413-.5-.266-.3.115.157-.2-.346-.244-.42a5.334,5.334,0,0,1-.248-.5c.192.448-.055-.223-.066-.258a40.647,40.647,0,0,1-1.045-5.817,67.2,67.2,0,0,1-.753-8.926c-.06-3.085-4.861-3.095-4.8,0Z"/><path class="f" d="M32.773,318.719c.14-4.783.176-9.812.176-15.856,0-6.837-.467-68.361-1.711-75.048-5.255-28.235-9.29-38.933-10.866-58.472a46.889,46.889,0,0,1,6.876-4.49,241.011,241.011,0,0,1,39.414-17.336,33.423,33.423,0,0,1,6.963-9.548,66.93,66.93,0,0,0,19.312,13.458c.4.181.845.4.974.822a1.551,1.551,0,0,1-.223,1.091h7.034a1.546,1.546,0,0,1-.223-1.091c.129-.419.574-.641.974-.822a66.926,66.926,0,0,0,19.311-13.458,33.027,33.027,0,0,1,6.731,9.094,242.289,242.289,0,0,1,40.743,17.79,46.618,46.618,0,0,1,6.989,4.581c-1.583,19.481-5.614,30.189-10.861,58.381-1.244,6.687-1.711,68.211-1.711,75.048,0,6.172.038,11.285.185,16.159Z"/><path class="d" d="M172.847,169.343c-.873,10.709-3.029,21.163-5.367,31.711-1.478,6.669-2.931,13.342-4.25,20.044a81.263,81.263,0,0,0-1.617,10.531c-.482,7.56-.6,15.15-.755,22.721q-.3,14.294-.433,28.589c-.069,6.335-.134,12.67-.153,19q0,.459,0,.919c0,3.088,4.8,3.093,4.8,0,0-5.589.066-11.178.122-16.766q.142-14.124.4-28.245c.154-8.091.3-16.19.714-24.272.063-1.213.132-2.426.233-3.636.035-.423.08-.845.123-1.267.064-.64-.093.443-.013.077.093-.42.153-.85.232-1.273,1.35-7.188,2.846-14.346,4.421-21.487,2.366-10.734,4.8-21.437,5.953-32.385q.225-2.13.4-4.266a2.419,2.419,0,0,0-2.4-2.4,2.449,2.449,0,0,0-2.4,2.4Z"/><path class="d" d="M68.226,144.451a261.518,261.518,0,0,0-35.84,14.966c-6.025,3.094-12.054,6.238-16.908,11.06a30.706,30.706,0,0,0-8.273,14.375c-1.483,5.975-1.37,12.306-1.673,18.417Q5,214.039,4.477,224.811,3.409,246.857,2.366,268.9,1.195,293.542,0,318.181c-.15,3.088,4.651,3.08,4.8,0q2.1-43.122,4.13-86.248.511-10.615,1.032-21.23c.324-6.608.39-13.293,1.056-19.876A27.548,27.548,0,0,1,16,177.153c3.765-5.144,9.2-8.5,14.726-11.452A256.484,256.484,0,0,1,69.5,149.079c2.911-.984,1.662-5.622-1.276-4.628Z"/><path class="d" d="M125.994,149.079a252.547,252.547,0,0,1,33.959,14.107c5.518,2.813,11.2,5.582,15.78,9.83a26.388,26.388,0,0,1,7.847,12.789c1.467,5.65,1.3,11.682,1.587,17.472q.523,10.428,1.042,20.856,1.074,21.537,2.134,43.075,1.194,24.255,2.376,48.51c.15,3.075,4.95,3.093,4.8,0q-2.148-44.09-4.34-88.177-.543-10.923-1.091-21.846c-.313-6.261-.227-12.7-1.373-18.879a30.619,30.619,0,0,0-6.828-14.324c-4.27-5.022-9.873-8.386-15.629-11.433a263.362,263.362,0,0,0-38.988-16.608c-2.933-.992-4.191,3.642-1.276,4.628Z"/><path class="d" d="M17.967,169.343c.957,11.728,3.363,23.161,5.9,34.628,1.661,7.5,3.258,15.007,4.687,22.552.131.691.256,1.383.388,2.074.127.664-.037-.428,0-.043.04.445.095.889.133,1.334.11,1.31.183,2.624.25,3.937.445,8.774.586,17.567.744,26.351q.265,14.783.388,29.567c.071,7.8.139,15.6.029,23.4q-.039,2.79-.118,5.577c-.088,3.09,4.712,3.088,4.8,0,.248-8.678.187-17.362.114-26.042q-.118-14.321-.347-28.64c-.152-9.251-.307-18.507-.7-27.752-.108-2.574-.186-5.17-.5-7.731-.366-3.022-1.069-6.016-1.664-9q-1.131-5.667-2.362-11.315c-2.47-11.377-5.284-22.825-6.519-34.312q-.246-2.289-.43-4.584a2.462,2.462,0,0,0-2.4-2.4,2.419,2.419,0,0,0-2.4,2.4Z"/><path class="a" d="M112.071,169.353c6.45-6.41,10.674-14.173,15.438-21.928a34.375,34.375,0,0,0-7-9.456,69.591,69.591,0,0,1-20.084,14c-.416.188-.88.419-1.014.855a1.611,1.611,0,0,0,.232,1.134,64.99,64.99,0,0,0,4.155,5.365C106.625,162.778,110.174,167.016,112.071,169.353Z"/><path class="a" d="M82.21,169.113c-6.4-6.36-10.592-14.065-15.32-21.76a34.1,34.1,0,0,1,6.946-9.385,69.051,69.051,0,0,0,19.931,13.891c.412.187.872.416,1.005.849a1.592,1.592,0,0,1-.23,1.125,64.243,64.243,0,0,1-4.122,5.324C87.615,162.589,84.093,166.794,82.21,169.113Z"/><path class="d" d="M113.768,171.05c4.975-4.99,8.83-10.9,12.47-16.9.884-1.455,1.759-2.915,2.644-4.369.563-.925,1.257-1.846.941-2.994a10.843,10.843,0,0,0-1.226-2.365,35.707,35.707,0,0,0-6.39-8.151,2.443,2.443,0,0,0-3.394,0,65.654,65.654,0,0,1-10.351,8.475q-2.868,1.9-5.911,3.51c-1.754.925-4.565,1.616-5.332,3.64-.692,1.828.356,3.391,1.418,4.777,1.329,1.735,2.713,3.429,4.1,5.118,2.538,3.093,5.114,6.155,7.638,9.259a2.417,2.417,0,0,0,3.394,0,2.455,2.455,0,0,0,0-3.394c-2.177-2.677-4.394-5.321-6.589-7.983-1.229-1.491-2.456-2.984-3.661-4.5-.421-.527-.844-1.052-1.241-1.6a5.85,5.85,0,0,1-.361-.509c-.133-.227-.1-.335-.1-.251l-.327,1.211q-.39.328.152.006c.247-.112.494-.226.739-.341q.747-.351,1.483-.722,1.317-.662,2.6-1.384,2.834-1.589,5.512-3.435a71.833,71.833,0,0,0,10.234-8.49h-3.394a33.109,33.109,0,0,1,6.624,8.971v-2.423c-4.574,7.458-8.835,15.2-15.063,21.442C108.191,169.846,111.583,173.241,113.768,171.05Z"/><path class="d" d="M83.907,167.416c-6.179-6.2-10.406-13.874-14.945-21.274v2.422a32.914,32.914,0,0,1,6.571-8.9H72.139A71.339,71.339,0,0,0,82.3,148.1q2.613,1.8,5.381,3.359,1.3.73,2.628,1.4.744.375,1.5.73.372.175.747.345.541.322.144-.012l-.328-1.211q.166-.175.051,0c-.047.082-.1.161-.15.239-.1.176-.238.34-.359.5-.394.539-.812,1.059-1.228,1.581-1.169,1.465-2.359,2.912-3.55,4.358-2.206,2.677-4.435,5.334-6.623,8.024a2.471,2.471,0,0,0,0,3.394,2.417,2.417,0,0,0,3.394,0c2.543-3.126,5.138-6.208,7.693-9.324,1.338-1.633,2.673-3.27,3.958-4.946,1.057-1.381,2.1-2.937,1.408-4.757-.769-2.028-3.6-2.723-5.359-3.653q-2.877-1.522-5.6-3.315a65.239,65.239,0,0,1-10.475-8.544,2.445,2.445,0,0,0-3.394,0,35.52,35.52,0,0,0-6.412,8.211,7.777,7.777,0,0,0-1.194,2.552,4.044,4.044,0,0,0,.979,2.666c.916,1.505,1.822,3.017,2.737,4.523,3.579,5.886,7.378,11.688,12.264,16.587C82.7,173,86.092,169.607,83.907,167.416Z"/><path class="d" d="M143.918,77.748a4.169,4.169,0,0,1,6.022.812c.775,1.2.767,2.915.792,4.294a23.4,23.4,0,0,1-.349,4.63c-1.042,5.682-4.026,12.486-10.341,13.6a2.421,2.421,0,0,0-1.676,2.952,2.454,2.454,0,0,0,2.952,1.677c8.974-1.576,13.282-11.663,14.089-19.771.4-3.98.314-9.019-3.028-11.791a9.148,9.148,0,0,0-11.855.208,2.42,2.42,0,0,0,0,3.394,2.451,2.451,0,0,0,3.394,0Z"/><path class="d" d="M138.211,98.418a22.275,22.275,0,0,1-1.053,5.574c-.2.67-.419,1.334-.641,2-.072.215-.143.431-.219.644-.029.085-.259.634-.1.253s-.08.172-.122.261c-.1.2-.192.408-.292.611-.214.438-.439.87-.671,1.3-.543,1.007-1.124,1.994-1.73,2.965a53.019,53.019,0,0,1-11.843,13.716,22.34,22.34,0,0,1-8.7,4.409c-3.008.7-1.735,5.325,1.276,4.628,6.725-1.556,12.368-6.366,16.815-11.439a57.854,57.854,0,0,0,9.355-13.909,29.881,29.881,0,0,0,2.721-11.008c.109-3.089-4.691-3.085-4.8,0Z"/><path class="d" d="M54.228,74.354a9.146,9.146,0,0,0-11.855-.208c-3.343,2.777-3.425,7.806-3.028,11.791.807,8.108,5.114,18.2,14.088,19.771a2.469,2.469,0,0,0,2.953-1.677,2.421,2.421,0,0,0-1.677-2.952c-6.32-1.11-9.29-7.912-10.34-13.595a23.166,23.166,0,0,1-.35-4.63,9.084,9.084,0,0,1,.7-4.14,4.15,4.15,0,0,1,6.115-.966,2.465,2.465,0,0,0,3.4,0,2.421,2.421,0,0,0,0-3.394Z"/><path class="d" d="M52.026,97.879c2.452,14.124,10.13,27.96,23.213,34.778a31.832,31.832,0,0,0,11.5,3.44,2.416,2.416,0,0,0,2.4-2.4,2.454,2.454,0,0,0-2.4-2.4c-13.2-1.383-23.51-13.272-27.665-25.158A59.9,59.9,0,0,1,56.655,96.6,2.422,2.422,0,0,0,53.7,94.927a2.454,2.454,0,0,0-1.676,2.952Z"/><path class="d" d="M121.357,13.1a22.776,22.776,0,0,0,2.465,1.991,15.377,15.377,0,0,0,2.034,1.261c.523.262,1.07.484,1.608.712a17.379,17.379,0,0,0,2.209.86,2.4,2.4,0,1,0,1.276-4.628,13.008,13.008,0,0,1-1.635-.619l.573.242c-.636-.269-1.284-.53-1.891-.86a18.467,18.467,0,0,1-2.421-1.61l.485.375c-.453-.353-.892-.722-1.309-1.118a2.4,2.4,0,0,0-3.394,3.394Z"/><path class="d" d="M59.269,69.524a41.38,41.38,0,0,1,2.946-14.04,27.367,27.367,0,0,1,3.829-7.034,12.653,12.653,0,0,1,5.089-4.012,2.464,2.464,0,0,0,1.676-2.952,2.419,2.419,0,0,0-2.952-1.676c-6.046,2.219-9.6,7.837-11.935,13.548a45.317,45.317,0,0,0-3.453,16.166c-.044,3.09,4.756,3.092,4.8,0Z"/><path class="d" d="M82.682,38.339a36.625,36.625,0,0,1,1.195-3.777c.2-.509-.117.254-.024.046.056-.126.111-.251.169-.376.1-.218.21-.434.325-.646s.247-.436.384-.646c.066-.1.134-.2.2-.3.129-.18.373-.349-.087.106.317-.314.587-.659.927-.954.091-.079.186-.155.279-.232.289-.242.016.008-.121.089.243-.145.467-.347.7-.509q.74-.517,1.518-.977c.239-.14.481-.276.728-.4.2-.1,1.007-.436.168-.1a2.622,2.622,0,0,0,1.434-1.1,2.4,2.4,0,0,0-2.71-3.525,17.634,17.634,0,0,0-3.5,1.92,13.3,13.3,0,0,0-2.818,2.4,20.333,20.333,0,0,0-3.4,7.712,2.4,2.4,0,0,0,4.629,1.276Z"/><path class="d" d="M93.013,38.564a22.1,22.1,0,0,1,1.914-2.231c.35-.356.712-.7,1.088-1.028.164-.144.332-.285.5-.422a2.05,2.05,0,0,1,.232-.177,35.09,35.09,0,0,1,4.87-2.782c.386-.2-.325.116-.019.009.155-.054.308-.117.463-.173.355-.127.713-.244,1.073-.355.877-.271,1.767-.5,2.662-.709q.739-.17,1.484-.309c.223-.041.445-.08.668-.116.1-.017.595-.092.274-.048a13.281,13.281,0,0,1,2.488-.125,2.4,2.4,0,0,0,0-4.8,22.573,22.573,0,0,0-6.055.739A27.2,27.2,0,0,0,99.2,27.78a28.044,28.044,0,0,0-5.282,3.092,26.02,26.02,0,0,0-5.046,5.269,2.416,2.416,0,0,0,.861,3.284,2.458,2.458,0,0,0,3.284-.861Z"/><path class="d" d="M117.951,42.126a23.555,23.555,0,0,1,7.482,2.68,14.067,14.067,0,0,1,4.8,5.471c.125.237,0-.03-.016-.071.046.1.086.215.123.323.078.227.154.454.221.685a16.381,16.381,0,0,1,.377,1.652,34.587,34.587,0,0,1,.39,3.472c.2,2.572.287,5.152.623,7.711s.85,5.437,2.814,7.3c2.239,2.128,5.639-1.261,3.394-3.394a4.284,4.284,0,0,1-.388-.409c.294.361-.039-.113-.123-.266-.05-.091-.27-.571-.2-.4.051.124-.148-.45-.192-.595a17.939,17.939,0,0,1-.611-3.105c-.3-2.682-.367-5.383-.618-8.07a20.05,20.05,0,0,0-1.695-7.351,18.537,18.537,0,0,0-5.976-6.771,26.111,26.111,0,0,0-9.125-3.49c-3.009-.677-4.293,3.95-1.276,4.629Z"/><path class="d" d="M124.81,9.788c-5.946-5.91-14.363-8.765-22.56-9.58A40.71,40.71,0,0,0,89.962.823a29.782,29.782,0,0,0-5.665,1.8c-.221.095-1.265.476-.511.229-.252.083-.5.168-.757.242-.849.248-1.712.448-2.575.641-.795.178-1.593.346-2.394.5-.293.055-.589.1-.882.155-.622.123.6-.069-.011,0-.385.046-.769.1-1.152.156A26.563,26.563,0,0,0,69.6,6.47a39.115,39.115,0,0,0-11.717,8.041c-6.89,6.711-11.449,15.7-13.913,24.936C41,50.576,41.359,62.224,43.647,73.439a2.4,2.4,0,1,0,4.628-1.276,70.14,70.14,0,0,1-.456-28.141c1.768-8.554,5.392-17.179,11.224-23.772a38.118,38.118,0,0,1,9.936-8.144,25.751,25.751,0,0,1,5.559-2.339c1.581-.446,3.19-.613,4.8-.912,1.59-.3,3.181-.636,4.739-1.071,1.387-.388,2.589-1.029,3.941-1.475A32.358,32.358,0,0,1,98.609,4.8c8.093.106,16.938,2.547,22.807,8.381,2.193,2.18,5.589-1.213,3.394-3.395Z"/><path class="d" d="M129.733,18.007c6.607,2.76,11.127,8.843,13.686,15.344,3.3,8.374,4.307,17.574,4.008,26.52a52.6,52.6,0,0,1-1.877,13.112c-.874,2.97,3.756,4.238,4.628,1.276,2.587-8.788,2.591-18.59,1.418-27.607s-3.825-18.174-9.7-25.308a27.821,27.821,0,0,0-10.889-7.966,2.415,2.415,0,0,0-2.953,1.676,2.463,2.463,0,0,0,1.677,2.953Z"/><path class="d" d="M89.13,112.269a18.079,18.079,0,0,0,8.711,2.02,14.2,14.2,0,0,0,8.822-2.615,2.4,2.4,0,0,0,0-3.394,2.474,2.474,0,0,0-3.394,0c.736-.574.2-.159.009-.037-.173.111-.352.213-.534.309-.094.049-.191.093-.286.142-.227.117-.319.007.128-.045a4.491,4.491,0,0,0-.736.268,13.314,13.314,0,0,1-2.061.47c.364-.056.028-.007-.154.011q-.3.03-.607.05c-.487.032-.976.044-1.464.041-.438,0-.875-.017-1.312-.047-.2-.014-.4-.03-.6-.05-.056-.006-.784-.123-.248-.026a17.585,17.585,0,0,1-1.925-.427c-.27-.081-.532-.178-.8-.268-.6-.205.392.2-.15-.058-.331-.156-.656-.318-.979-.488a2.4,2.4,0,0,0-2.422,4.144Z"/><path class="d" d="M96.549,91.841A40.159,40.159,0,0,1,97.5,96.2l-.085-.638a2.7,2.7,0,0,1,.016.6l.086-.638a1.488,1.488,0,0,1-.066.271l.242-.573a1.18,1.18,0,0,1-.1.174l.375-.486a.94.94,0,0,1-.142.14l.485-.375a2.774,2.774,0,0,1-.345.183l.573-.242a2.508,2.508,0,0,1-.582.17L98.6,94.7a2.267,2.267,0,0,1-.546,0l.638.086c-.206-.029-.409-.079-.615-.107a1.823,1.823,0,0,0-.957-.043,1.794,1.794,0,0,0-.892.285,2.4,2.4,0,0,0-.861,3.284,2.3,2.3,0,0,0,1.434,1.1c.484.065.953.188,1.445.209a4.639,4.639,0,0,0,2.148-.513,3.136,3.136,0,0,0,1.727-2.063,5.1,5.1,0,0,0-.021-2.2c-.237-1.406-.562-2.8-.923-4.176a2.473,2.473,0,0,0-1.1-1.434,2.4,2.4,0,0,0-3.526,2.71Z"/><path class="d" d="M73.646,79.446c-.728,2.367-.253,7.812,4.231,8.275,5.926-.036,6.241-6.618,4.246-9.713C80.49,75.474,75.687,74.42,73.646,79.446Z"/><path class="d" d="M121.105,79.446c.729,2.367.254,7.812-4.23,8.275-5.926-.036-6.242-6.618-4.247-9.714C114.261,75.473,119.064,74.42,121.105,79.446Z"/><path class="d" d="M111.51,105.629a9.352,9.352,0,0,1,1.6,1.6l-.375-.486a9.518,9.518,0,0,1,1.223,2.1l-.242-.574a9.408,9.408,0,0,1,.451,1.388,2.4,2.4,0,1,0,4.629-1.276,11.456,11.456,0,0,0-3.893-6.15,2.672,2.672,0,0,0-1.7-.7,2.442,2.442,0,0,0-1.7.7,2.417,2.417,0,0,0-.7,1.7,2.32,2.32,0,0,0,.7,1.7Z"/><path class="a" d="M241.907,180.453a5.9,5.9,0,0,1,4.721-1.381,5.572,5.572,0,0,1,4.006,2.663,7.876,7.876,0,0,1,.825,3.169,23.606,23.606,0,0,1-2.407,12.513,15.008,15.008,0,0,1-3.88,5.092,9.956,9.956,0,0,1-4.625,2.085l-.792.121c-.38,1.421-.806,2.618-1.016,3.254-1.32,3.583-8.588,15.81-17.809,20.639a56.279,56.279,0,0,0,.837,7.8c.5,2.84.34,5.39,4.3,6.82.226.084,5,2.244,6.787,3.043l-1.486,1.325c-4.5,4.027-15.156,11.736-28.648,11.736a39.366,39.366,0,0,1-30.142-13.172c2.067-.772,7-2.814,7.309-2.932,3.96-1.43,3.8-3.98,4.3-6.82a56.81,56.81,0,0,0,.819-7.231,34.328,34.328,0,0,1-11.767-9.415,40.127,40.127,0,0,1-7.65-14.933l-1.509-.232a9.956,9.956,0,0,1-4.625-2.085,15.008,15.008,0,0,1-3.88-5.092,23.606,23.606,0,0,1-2.407-12.513,7.876,7.876,0,0,1,.825-3.169A5.572,5.572,0,0,1,158,179.072a5.9,5.9,0,0,1,4.721,1.381s.61-34.123,39.721-34.123S241.907,180.453,241.907,180.453Z"/><path class="d" d="M173.045,248.58c2.329-.808,4.593-1.853,6.872-2.791a11.4,11.4,0,0,0,4.261-2.448,9,9,0,0,0,2.125-5.033,90.383,90.383,0,0,0,1.1-9.133,2.4,2.4,0,0,0-4.8,0,71.081,71.081,0,0,1-1.036,8.516,11.241,11.241,0,0,1-.277,1.258c-.043.144-.358.828-.069.265-.111.216-.229.421-.35.63-.152.216-.14.2.037-.04-.084.1-.173.193-.266.284-.051.05-.54.421-.157.156a6.417,6.417,0,0,1-1.258.674c-2.492.986-4.929,2.154-7.462,3.033a2.46,2.46,0,0,0-1.677,2.953,2.423,2.423,0,0,0,2.953,1.676Z"/><path class="d" d="M218.527,228.6a71.161,71.161,0,0,0,.978,8.759c.309,1.9.542,3.766,1.751,5.347a7.6,7.6,0,0,0,2.554,2.147c.388.2.8.366,1.2.53.124.05.789.326.18.061-.561-.244,0,.006.14.066,1.236.549,2.468,1.108,3.7,1.663,1.275.574,2.543,1.17,3.836,1.7a2.416,2.416,0,0,0,2.952-1.676,2.461,2.461,0,0,0-1.676-2.953c1.075.443.3.123.049.013l-.938-.42q-1.2-.537-2.391-1.076c-1.367-.616-2.725-1.265-4.115-1.828a8.171,8.171,0,0,1-1.164-.6c-.4-.239.1.17-.212-.175-.094-.1-.557-.744-.273-.274-.131-.218-.256-.432-.371-.66.273.543-.043-.175-.081-.307a11.725,11.725,0,0,1-.284-1.324,71.1,71.1,0,0,1-1.038-8.992,2.4,2.4,0,0,0-4.8,0Z"/><path class="a" d="M127.122,319.933c.988-16.479,2-34.159,8.451-48.584,1.715-3.834,6.117-8.639,12.511-13.107a128,128,0,0,1,20.957-11.594,4.338,4.338,0,0,1,4.846.891,39.3,39.3,0,0,0,28.833,11.79c13.492,0,24.143-7.709,28.648-11.736a4.367,4.367,0,0,1,4.7-.73,127.356,127.356,0,0,1,20.475,11.379c6.394,4.468,10.8,9.273,12.511,13.107,6.452,14.425,7.463,32.105,8.451,48.584"/><path class="d" d="M129.522,319.933c.55-9.182,1.055-18.4,2.563-27.49A96.527,96.527,0,0,1,135.2,279.11c1.115-3.525,2.342-7.155,4.618-10.12,5.341-6.955,13.521-11.687,21.132-15.744q3.16-1.685,6.4-3.205c1.385-.649,3.362-2.1,4.794-.863,1.786,1.538,3.407,3.181,5.319,4.591a41.273,41.273,0,0,0,19.051,7.537,43.162,43.162,0,0,0,24.8-4.108,50.054,50.054,0,0,0,8.242-5.054c1.075-.81,2.113-1.656,3.14-2.525,1.482-1.252,2.689-.461,4.274.277,8.459,3.94,17.187,8.58,24.045,15a25.3,25.3,0,0,1,6.309,8.433,73.742,73.742,0,0,1,3.914,12.441c2.057,8.968,2.848,18.161,3.449,27.324.149,2.279.285,4.559.422,6.838.184,3.07,4.985,3.091,4.8,0a274.216,274.216,0,0,0-2.771-28.984,95.269,95.269,0,0,0-3.2-13.521c-1.257-3.895-2.675-7.849-5.177-11.129-5.728-7.508-14.228-12.69-22.439-17.085q-3.414-1.828-6.926-3.463c-2.266-1.056-4.424-2.124-6.975-1.409-1.7.476-2.884,1.723-4.2,2.8-1.01.827-1.9,1.488-3.133,2.322-6.474,4.393-14.033,7.367-21.928,7.461a38.265,38.265,0,0,1-21.318-5.956,33.207,33.207,0,0,1-5.5-4.384,8.023,8.023,0,0,0-4.776-2.655c-2.466-.278-4.683,1.045-6.842,2.062-8.777,4.134-17.73,9.054-24.8,15.792a28.53,28.53,0,0,0-6.759,9.121,77.845,77.845,0,0,0-4.3,13.164c-2.21,9.437-3.068,19.151-3.7,28.8-.156,2.353-.3,4.707-.437,7.06-.184,3.085,4.616,3.075,4.8,0Z"/><path class="d" d="M149.425,302.052c.1.582-.029-.382-.008-.113.013.176.039.351.056.526.044.455.078.911.109,1.366.093,1.376.155,2.754.211,4.132.163,3.988.26,7.979.349,11.97.068,3.084,4.869,3.1,4.8,0-.09-4.076-.19-8.153-.36-12.226a51.82,51.82,0,0,0-.528-6.931A2.421,2.421,0,0,0,151.1,299.1a2.454,2.454,0,0,0-1.676,2.952Z"/><path class="d" d="M250.828,301.624a50.072,50.072,0,0,0-.516,6.645c-.166,3.886-.264,7.775-.353,11.664a2.4,2.4,0,0,0,4.8,0c.087-3.808.183-7.617.342-11.423.054-1.271.113-2.541.2-3.81.031-.462.065-.924.11-1.384a2.124,2.124,0,0,0,.06-.555c.1.12-.113.7-.012.139a2.468,2.468,0,0,0-1.676-2.952,2.422,2.422,0,0,0-2.953,1.676Z"/><path class="g" d="M246.326,161a41.922,41.922,0,0,0-5.664-15.439,41.185,41.185,0,0,0-5.728-7.245c-.871-.882-2.2-2.17-3.1-2.954a51.532,51.532,0,0,0-7.536-5,44.478,44.478,0,0,0-6.582-2.951,46.884,46.884,0,0,0-15.6-2.559,44.559,44.559,0,0,0-26.434,8.135c-8.248,5.917-17.589,16.455-18.336,33.512a73.963,73.963,0,0,0,.953,12.3l.028.242a5.806,5.806,0,0,1,4.323,1.4,14.239,14.239,0,0,0,1.735.015c1.952-.072,3.795-1.249,4.922-3.727,5.344-11.1,14.016-19.851,28.414-23.452,1.362-.341,2.978-.585,4.117.093,1.683,1,1.107,3.237,2.522,4.469,1.493,1.3,4.2.781,6.242.08a73.827,73.827,0,0,0,9.047-3.784c.4.121.637.195.637.195,2.2.677,4.915,3.237,6.473,5.041a37.618,37.618,0,0,1,8.1,17.5,5.054,5.054,0,0,0,1.935,3.811,4.86,4.86,0,0,0,5.187-.238,5.836,5.836,0,0,1,4.106-1.426l.037-.224a57.883,57.883,0,0,0,.764-12.3A47.479,47.479,0,0,0,246.326,161Z"/><path class="d" d="M248.438,179.43c1.957-11.953.792-24.611-5.7-35.085a46.948,46.948,0,0,0-27.509-20.221,50.248,50.248,0,0,0-35.441,3.541,46.9,46.9,0,0,0-19.192,18.425,45.179,45.179,0,0,0-5.378,17,59.48,59.48,0,0,0,.767,16.346,2.419,2.419,0,0,0,2.953,1.676,2.458,2.458,0,0,0,1.676-2.952c-1.421-8.724-1.24-18.3,2.63-26.71A42.239,42.239,0,0,1,178.6,133.9a44.332,44.332,0,0,1,30.324-6.187,43.115,43.115,0,0,1,27.1,15.414c7.91,9.774,9.77,22.9,7.783,35.032a2.473,2.473,0,0,0,1.676,2.952,2.419,2.419,0,0,0,2.953-1.676Z"/><path class="d" d="M221.013,150.707a69.122,69.122,0,0,1-8.454,3.954,38.015,38.015,0,0,1-3.608,1.257c-.751.2-2.133.636-2.873.2-.5-.3-.575-1.358-.8-1.963a5.256,5.256,0,0,0-2.55-3.021c-2.689-1.338-6.029-.158-8.695.694a43.686,43.686,0,0,0-22.8,16.787,50.332,50.332,0,0,0-3.851,6.6,4.867,4.867,0,0,1-2.126,2.628,2.253,2.253,0,0,1-1.095.211c-.351-.009-.333-.019-.214-.005-.193-.023-1.039-.37-.675-.157-2.673-1.563-5.091,2.584-2.423,4.144a7.334,7.334,0,0,0,7.246-.289c2.383-1.465,3.306-4,4.584-6.338a41.736,41.736,0,0,1,8.389-10.856,37.45,37.45,0,0,1,12.067-7.344q1.812-.68,3.676-1.206c.867-.247,2.854-1.109,3.724-.6.422.245.48,1.263.671,1.786a5.47,5.47,0,0,0,2.733,3.211c3.034,1.46,6.549.157,9.47-.946a78.368,78.368,0,0,0,10.03-4.6c2.708-1.487.289-5.633-2.423-4.145Z"/><path class="d" d="M219.645,156.645c2.714.926,5.035,3.786,6.639,6.038a36.343,36.343,0,0,1,4.906,9.423,33.911,33.911,0,0,1,1.284,5,9.084,9.084,0,0,0,1.907,4.636c2.239,2.579,6.083,2.284,8.81.777,2.7-1.495.285-5.642-2.423-4.145a2.786,2.786,0,0,1-2.764.238c-.3-.132.186.282-.072-.084.211.3-.214-.322-.248-.387a5.839,5.839,0,0,1-.512-1.906,36.49,36.49,0,0,0-3.16-9.863,39.333,39.333,0,0,0-5.664-8.813,18.025,18.025,0,0,0-7.427-5.539c-2.93-1-4.188,3.636-1.276,4.629Z"/><path class="d" d="M243.6,182.15a3.384,3.384,0,0,1,4.958.8,7.74,7.74,0,0,1,.577,3.506,20.282,20.282,0,0,1-.334,4.211c-.939,4.876-3.48,10.655-8.9,11.615a2.423,2.423,0,0,0-1.677,2.953,2.456,2.456,0,0,0,2.953,1.676c8.074-1.432,11.947-10.5,12.651-17.8.352-3.652.2-8.119-2.874-10.622a8.361,8.361,0,0,0-10.752.27,2.419,2.419,0,0,0,0,3.394,2.452,2.452,0,0,0,3.394,0Z"/><path class="d" d="M238.086,200.2a19.428,19.428,0,0,1-.905,4.8c-.184.62-.387,1.234-.592,1.847-.079.235-.472,1.2-.163.512a39.645,39.645,0,0,1-2.562,4.716,46.427,46.427,0,0,1-10.4,12.038,19.5,19.5,0,0,1-7.574,3.833c-3.007.7-1.734,5.329,1.276,4.629,5.983-1.392,11.008-5.653,14.967-10.169a51.311,51.311,0,0,0,8.313-12.352,26.862,26.862,0,0,0,2.435-9.849c.115-3.089-4.686-3.085-4.8,0Z"/><path class="d" d="M164.417,178.756a8.358,8.358,0,0,0-10.752-.27c-3.078,2.5-3.225,6.972-2.874,10.622.7,7.305,4.576,16.368,12.651,17.8a2.469,2.469,0,0,0,2.953-1.676,2.423,2.423,0,0,0-1.677-2.953c-5.415-.96-7.957-6.74-8.9-11.615a20.056,20.056,0,0,1-.338-3.99,8.054,8.054,0,0,1,.581-3.727,3.383,3.383,0,0,1,4.958-.8,2.466,2.466,0,0,0,3.394,0,2.42,2.42,0,0,0,0-3.394Z"/><path class="d" d="M162,199.8a45.594,45.594,0,0,0,9.814,21.984c5.441,6.4,12.646,11.07,21.108,11.964a2.415,2.415,0,0,0,2.4-2.4,2.455,2.455,0,0,0-2.4-2.4c-7.3-.771-13.419-5.4-17.99-10.886-4.623-5.55-7.08-12.5-8.3-19.538a2.419,2.419,0,0,0-2.952-1.676A2.454,2.454,0,0,0,162,199.8Z"/><path class="d" d="M243.989,319.933a60.449,60.449,0,0,0,.364-7.22,7.118,7.118,0,0,0-.431-3.154,4.233,4.233,0,0,0-2.758-2.312,12.661,12.661,0,0,0-3.066-.144h-3.647c-4.65,0-9.365-.234-14.01,0a3.66,3.66,0,0,0-3.073,1.727,6.725,6.725,0,0,0-.475,3.432c-.014,2.559-.01,5.119.173,7.673a2.459,2.459,0,0,0,2.4,2.4,2.42,2.42,0,0,0,2.4-2.4c-.146-2.042-.181-4.087-.179-6.134,0-.813.009-1.626.011-2.439,0-.728.288-1.066-.649-.116-1.469,1.491-.81.532-.475.657a6.278,6.278,0,0,0,1.764,0h2.9q6.9,0,13.806,0a7.716,7.716,0,0,0,1.033,0c-.043.137-.744-.4-.533-.543a7.971,7.971,0,0,0,0,1.536,59.731,59.731,0,0,1-.364,7.038,2.413,2.413,0,0,0,2.4,2.4,2.459,2.459,0,0,0,2.4-2.4Z"/><path class="d" d="M194.8,211.8c2.016,1.973,5.153,2.591,7.869,2.589s5.853-.615,7.869-2.589a2.4,2.4,0,1,0-3.394-3.394c-.092.09-.475.4-.088.1s-.1.059-.219.131c-.16.1-.325.189-.493.274a3.461,3.461,0,0,0-.343.161c.153-.1.5-.191.128-.062a11.511,11.511,0,0,1-1.641.449c-.094.017-.716.149-.111.03a4.7,4.7,0,0,1-.5.051c-.4.034-.8.049-1.2.049-.368,0-.737-.012-1.1-.04a3.322,3.322,0,0,1-.607-.06c.292.086.264.037-.021-.014a10.06,10.06,0,0,1-1.663-.44c-.212-.077-.473-.286.06.037-.088-.054-.194-.089-.287-.134-.186-.092-.369-.191-.546-.3-.135-.082-.259-.19-.4-.267.668.377.3.24.089.036A2.4,2.4,0,0,0,194.8,211.8Z"/><path class="d" d="M201.636,194.881a35.959,35.959,0,0,1,.842,3.851l-.086-.638a2.3,2.3,0,0,1,.015.531l.085-.638a1.226,1.226,0,0,1-.058.239l.242-.573a1,1,0,0,1-.085.154l.376-.486a.821.821,0,0,1-.126.124l.486-.375a2.537,2.537,0,0,1-.305.161l.573-.242a2.2,2.2,0,0,1-.514.15l.638-.086a2.054,2.054,0,0,1-.483,0l.638.085c-.181-.025-.36-.069-.542-.094a1.823,1.823,0,0,0-.957-.043,1.794,1.794,0,0,0-.892.285,2.4,2.4,0,0,0-.861,3.284,2.3,2.3,0,0,0,1.434,1.1c.452.061.89.174,1.35.195a4.391,4.391,0,0,0,2.038-.492,3.034,3.034,0,0,0,1.655-1.989,4.824,4.824,0,0,0-.019-2.095c-.209-1.241-.5-2.47-.815-3.687a2.476,2.476,0,0,0-1.1-1.434,2.4,2.4,0,0,0-3.526,2.71Z"/><path class="d" d="M181.917,184.648c-.629,2.043-.219,6.742,3.651,7.142,5.115-.03,5.387-5.712,3.665-8.383C187.823,181.219,183.678,180.31,181.917,184.648Z"/><path class="d" d="M222.71,184.648c.629,2.043.219,6.742-3.651,7.142-5.115-.031-5.387-5.712-3.665-8.384C216.8,181.219,220.949,180.31,222.71,184.648Z"/></svg>