<?xml version="1.0" encoding="iso-8859-1"?>
<!-- Uploaded to: SVG Repo, www.svgrepo.com, Generator: SVG Repo Mixer Tools -->
<svg height="800px" width="800px" version="1.1" id="Layer_1" xmlns="http://www.w3.org/2000/svg" xmlns:xlink="http://www.w3.org/1999/xlink" 
	 viewBox="0 0 512 512" xml:space="preserve">
<path style="fill:#004FAC;" d="M197.149,448.765c-36.053,0-72.107,0-108.161,0c-25.948,0.001-57.321-21.137-65.618-47.899
	c-21.012-74.955-21.012-154.286,0-229.241c8.298-26.764,39.67-47.899,65.618-47.899c36.053,0,72.107,0,108.161,0
	c25.948,0,57.321,21.136,65.618,47.899c21.012,74.955,21.012,154.286,0,229.241C254.469,427.629,223.096,448.765,197.149,448.765z"
	/>
<g>
	<path style="fill:#003F8A;" d="M262.948,400.195c3.929-14.105,7.114-28.364,9.556-42.718
		c-16.466-20.676-29.858-61.59-42.092-98.976c-19.135-58.474-38.832-118.643-78.621-134.777c-11.282,0-22.564,0-33.847,0
		c-4.394,3.511-7.217,8.906-7.217,14.967c0,10.583,8.578,19.16,19.16,19.16c27.267,0,46.838,59.804,64.105,112.567
		C211.511,323.954,229.5,378.912,262.948,400.195z"/>
	<path style="fill:#003F8A;" d="M105.491,400.866c-21.011-74.955-21.012-154.286,0-229.241c8.298-26.764,39.67-47.899,65.618-47.899
		c-27.374,0-54.748,0-82.122,0c-25.948,0-57.32,21.136-65.618,47.899c-21.012,74.955-21.011,154.286,0,229.241
		c8.297,26.763,39.671,47.9,65.618,47.899c27.374,0,54.748,0,82.122,0C145.162,448.766,113.788,427.628,105.491,400.866z"/>
	<path style="fill:#003F8A;" d="M202.8,418.328c-1.729-3.827,0.056-8.332,3.9-10.022c4.464-1.964,8.887-4.877,12.453-8.203
		c3.073-2.865,7.884-2.696,10.748,0.374c2.864,3.071,2.697,7.882-0.374,10.747c-4.784,4.462-10.716,8.37-16.705,11.003
		C211.825,422.665,205.311,423.888,202.8,418.328z"/>
	<path style="fill:#003F8A;" d="M186.047,425.952h-36.499c-4.199,0-7.604-3.404-7.604-7.604c0-4.2,3.405-7.604,7.604-7.604h36.499
		c4.199,0,7.604,3.404,7.604,7.604C193.651,422.549,190.246,425.952,186.047,425.952z"/>
</g>
<path style="fill:#FFE477;" d="M17.323,376.484h251.491c12.929-59.457,12.929-121.021,0-180.478H17.323
	C4.394,255.463,4.394,317.027,17.323,376.484z"/>
<g>
	<path style="fill:#FFDA44;" d="M99.444,196.006H17.323c-12.929,59.457-12.929,121.021,0,180.478h82.122
		C86.516,317.027,86.515,255.463,99.444,196.006z"/>
	<path style="fill:#FFDA44;" d="M272.491,357.458c-16.459-20.684-29.846-61.582-42.077-98.957
		c-6.985-21.347-14.046-42.92-22.131-62.496h-41.798c10.132,21.32,19.094,48.702,27.509,74.414
		c12.821,39.178,25.896,79.116,45.094,106.064h29.727C270.189,370.164,271.408,363.82,272.491,357.458z"/>
</g>
<path style="fill:#FF3F62;" d="M10.918,339.049h264.299c4.393-35.064,4.393-70.544,0-105.609H10.918
	C6.526,268.505,6.525,303.984,10.918,339.049z"/>
<g>
	<path style="fill:#FF0C38;" d="M193.997,270.42c7.725,23.604,15.543,47.48,24.736,68.629h42.237
		c-11.397-22.027-21.306-52.291-30.552-80.548c-2.737-8.365-5.489-16.761-8.306-25.061h-40.56
		C185.868,245.592,189.996,258.192,193.997,270.42z"/>
	<path style="fill:#FF0C38;" d="M93.041,233.44H10.919c-4.393,35.064-4.393,70.545,0,105.609h82.122
		C88.648,303.984,88.648,268.505,93.041,233.44z"/>
</g>
<path style="fill:#FFDAAA;" d="M503.138,407.261c0,22.922-18.582,41.504-41.504,41.504c-22.922,0-41.504-18.582-41.504-41.504
	s18.582-302.172,41.504-302.172C484.556,105.089,503.138,384.339,503.138,407.261z"/>
<path style="fill:#FFC477;" d="M452.818,407.261c0-17.119,10.365-177.199,25.161-257.16c-5.015-27.106-10.54-45.012-16.343-45.012
	c-22.922,0-41.504,279.251-41.504,302.172c0,22.922,18.582,41.504,41.504,41.504c5.804,0,11.328-1.195,16.343-3.347
	C463.183,439.072,452.818,424.379,452.818,407.261z"/>
<path style="fill:#FFDAAA;" d="M462.264,63.235c-12.798,0-23.268,10.47-23.268,23.267v46.712c0,12.797,10.47,23.267,23.267,23.267
	s23.267-10.47,23.267-23.267V86.502C485.53,73.705,475.06,63.235,462.264,63.235z"/>
<g>
	<path style="fill:#FFC477;" d="M462.264,133.214V86.502c0-8.565,4.694-16.083,11.634-20.122c-3.429-1.995-7.402-3.146-11.634-3.146
		c-12.798,0.001-23.268,10.471-23.268,23.268v46.712c0,12.797,10.47,23.267,23.267,23.267c4.232,0,8.205-1.151,11.634-3.146
		C466.958,149.297,462.264,141.779,462.264,133.214z"/>
	<path style="fill:#FFC477;" d="M483.232,125.967h-43.195c-11.64,0-21.163,9.523-21.163,21.163l0,0
		c0,11.64,9.523,21.163,21.163,21.163h43.195c11.64,0,21.163-9.523,21.163-21.163l0,0
		C504.396,135.491,494.872,125.967,483.232,125.967z"/>
</g>
<path style="fill:#FFB655;" d="M455.372,147.131c0-11.64,9.524-21.164,21.164-21.164h-36.499c-11.64,0-21.164,9.524-21.164,21.164
	s9.524,21.164,21.164,21.164h36.499C464.896,168.294,455.372,158.771,455.372,147.131z"/>
<path style="fill:#B39A7C;" d="M307.697,393.561c-55.047,0-78.167-70.648-100.524-138.969
	c-17.267-52.764-36.837-112.567-64.105-112.567c-10.583,0-19.16-8.578-19.16-19.16s8.578-19.16,19.16-19.16
	c55.047,0,78.167,70.648,100.524,138.969c17.267,52.764,36.837,112.567,64.105,112.567c27.531,0,43.464-45.846,58.87-90.185
	c9.139-26.297,18.588-53.49,31.535-74.583c16.838-27.434,38.213-41.343,63.534-41.343c10.583,0,19.16,8.578,19.16,19.16
	c0,10.582-8.578,19.16-19.16,19.16c-27.531,0-43.464,45.848-58.87,90.185c-9.139,26.297-18.588,53.49-31.535,74.583
	C354.393,379.651,333.017,393.561,307.697,393.561z"/>
<g>
	<path style="fill:#A78966;" d="M433.461,206.424c8.008-11.637,17.162-18.974,28.173-18.974c10.268,0,18.624-8.082,19.113-18.229
		c-2.982,1.914-6.52,3.037-10.326,3.037C455.169,172.258,443.477,186.334,433.461,206.424z"/>
	<path style="fill:#A78966;" d="M316.484,378.368c-55.047,0-78.167-70.648-100.524-138.969
		c-17.267-52.764-36.837-112.567-64.105-112.567c-10.583,0-19.16-8.578-19.16-19.16c0-0.314,0.031-0.62,0.047-0.931
		c-5.307,3.407-8.834,9.347-8.834,16.122c0,10.583,8.578,19.16,19.16,19.16c27.267,0,46.838,59.804,64.105,112.567
		c22.358,68.321,45.477,138.969,100.524,138.969c25.321,0,46.697-13.909,63.534-41.343c2.248-3.663,4.385-7.52,6.439-11.513
		C361.208,365.695,340.644,378.368,316.484,378.368z"/>
</g>
<path d="M512,147.131c0-12.385-7.866-22.967-18.865-27.011V86.502c0-17.022-13.848-30.871-30.871-30.871
	c-17.023,0-30.871,13.848-30.871,30.871v33.191c-11.652,3.679-20.124,14.587-20.124,27.439c0,4.322,0.971,8.49,2.799,12.312
	c-8.178,6.991-15.673,16.012-22.45,27.051c-13.371,21.787-22.956,49.362-32.235,76.064c-13.857,39.879-29.563,85.077-51.687,85.077
	c-5.183,0-13.188-4.075-23.446-21.775c0.062-0.294,9.771-88.268-14.162-156.29c-0.023-0.065-0.034-0.134-0.059-0.199
	c-21.461-57.666-79.114-53.251-79.114-53.251C176.84,102.697,161.011,96.1,143.068,96.1c-12.43,0-22.906,8.517-25.903,20.021H88.987
	c-30.555,0-63.931,24.386-72.881,53.251c-0.02,0.065-0.041,0.133-0.059,0.199c-21.396,76.327-21.396,157.018,0,233.346
	c0.019,0.066,0.039,0.133,0.059,0.199c8.95,28.867,42.326,53.252,72.881,53.25h108.16c0.002,0,0,0,0.002,0
	c30.554,0,63.93-24.387,72.879-53.25c0.02-0.065,0.04-0.133,0.059-0.199c1.063-3.789,2.077-7.617,3.042-11.457
	c10.577,6.49,22.057,9.705,34.567,9.705c28.145,0,51.701-15.13,70.015-44.969c2.196-3.579,1.076-8.261-2.504-10.458
	c-3.579-2.196-8.261-1.076-10.458,2.504c-15.359,25.027-34.555,37.716-57.052,37.716c-49.535,0-71.782-67.985-93.297-133.731
	c-18.953-57.917-38.552-117.806-71.331-117.806c-6.372,0-11.556-5.184-11.556-11.556c0-6.372,5.184-11.556,11.556-11.556
	c49.534,0,71.781,67.984,93.297,133.731c18.953,57.917,38.552,117.806,71.331,117.806c32.939,0,49.773-48.444,66.064-95.327
	c9.002-25.902,18.311-52.686,30.82-73.067c15.359-25.027,34.555-37.715,57.053-37.715c6.371,0,11.555,5.184,11.555,11.556
	c0,6.372-5.184,11.556-11.555,11.556c-32.942,0-49.775,48.444-66.064,95.325c-6.251,17.985-12.715,36.582-20.268,53.02
	c-1.754,3.816-0.082,8.331,3.734,10.084c3.817,1.757,8.332,0.082,10.084-3.734c7.86-17.105,14.446-36.053,20.827-54.412
	c4.89-14.072,10.01-28.805,15.562-41.983c-8.486,76.841-12.982,156.929-12.982,169.113c0,27.078,22.03,49.108,49.109,49.108
	c27.078,0,49.108-22.03,49.108-49.108c0-16.462-8.361-147.037-20.944-232.127C502.505,172.154,512,160.735,512,147.131z
	 M248.913,368.88H23.493c-1.492-7.382-2.78-14.793-3.869-22.228h215.138C239.106,356.721,245.366,364.272,248.913,368.88z
	 M197.149,441.16H88.987c-23.602,0.002-51.37-20.219-58.326-42.45c-1.36-4.856-2.624-9.732-3.804-14.623h232.418
	c-1.183,4.899-2.449,9.794-3.802,14.622C248.521,420.94,220.753,441.16,197.149,441.16z M227.246,331.444H17.68
	c-3.277-30.045-3.277-60.355,0-90.401h12.572c4.199,0,7.604-3.403,7.604-7.604c0-4.2-3.404-7.604-7.604-7.604H19.624
	c1.089-7.434,2.376-14.845,3.869-22.227h157.933c2.784,7.122,5.487,14.592,8.134,22.227H81.284c-4.199,0-7.604,3.403-7.604,7.604
	c0,4.2,3.405,7.604,7.604,7.604H194.71c1.761,5.302,3.504,10.624,5.234,15.912C208.296,282.474,216.861,308.632,227.246,331.444z
	 M143.068,149.627c17.296,0,31.003,36.534,32.008,38.775H26.858c1.18-4.89,2.444-9.765,3.804-14.622
	c6.953-22.232,34.722-42.452,58.326-42.452h28.696C121.235,141.949,131.268,149.627,143.068,149.627z M251.06,241.044h17.412
	c2.033,18.631,2.801,37.389,2.295,56.202C263.8,279.909,257.35,260.264,251.06,241.044z M266.521,225.836h-20.46
	c-2.469-7.452-4.983-14.89-7.58-22.227h24.165C264.143,210.992,265.43,218.403,266.521,225.836z M204.508,131.957
	c21.716,3.546,44.723,21.871,50.965,41.823c1.361,4.858,2.607,9.735,3.788,14.623h-26.364
	C226.701,172.215,217.139,145.164,204.508,131.957z M462.264,70.838c8.637,0,15.663,7.027,15.663,15.663v31.862h-31.326V86.502
	C446.601,77.865,453.627,70.838,462.264,70.838z M461.635,141.527c-12.506,0-24.104,2.995-34.74,8.932
	c-0.275-1.077-2.592-16.888,13.143-16.888h43.195c7.476,0,13.559,6.083,13.559,13.56c0,6.126-4.087,11.31-9.675,12.985
	C483.654,149.345,473.542,141.527,461.635,141.527z M461.635,441.16c-18.693,0-33.901-15.208-33.901-33.9
	c0-13.46,6.637-119.612,17.145-203.148c5.17-5.694,10.723-9.059,16.756-9.059c5.584,0,10.772-1.722,15.067-4.658
	c12.053,82.182,18.833,201.216,18.833,216.864C495.534,425.952,480.326,441.16,461.635,441.16z"/>
<path d="M58.81,225.836h-5.275c-4.199,0-7.604,3.403-7.604,7.604c0,4.2,3.405,7.604,7.604,7.604h5.275
	c4.199,0,7.604-3.403,7.604-7.604C66.414,229.24,63.01,225.836,58.81,225.836z"/>
</svg>